# AST/ASF file generated using VICON BodyLanguage
# -----------------------------------------------
:version 1.10
:name VICON
:units
  mass 1.0
  length 0.45
  angle deg
:documentation
   .ast/.asf automatically generated from VICON data using
   VICON BodyBuilder and BodyLanguage model FoxedUp or BRILLIANT.MOD
:root
   order TX TY TZ RX RY RZ
   axis XYZ
   position 0 0 0  
   orientation 0 0 0 
:bonedata
  begin
     id 1 
     name lhipjoint
     direction 0.710188 -0.616876 0.339259 
     length 2.5669 
     axis 0 0 0  XYZ
  end
  begin
     id 2 
     name lfemur
     direction 0.34202 -0.939693 0  
     length 7.12796  
     axis 0 0 20  XYZ
    dof rx ry rz
    limits (-160.0 20.0)
           (-70.0 70.0)
           (-60.0 70.0)
  end
  begin
     id 3 
     name ltibia
     direction 0.34202 -0.939693 0   
     length 7.58108   
     axis 0 0 20   XYZ
    dof rx
    limits (-10.0 170.0)
  end
  begin
     id 4 
     name lfoot
     direction 0.0669471 -0.183936 0.980656   
     length 2.17365   
     axis -90 7.62852e-016 20   XYZ
    dof rx rz
    limits (-45.0 90.0)
           (-70.0 20.0)
  end
  begin
     id 5 
     name ltoes
     direction 1.53508e-011 -4.21705e-011 1   
     length 1.09427   
     axis -90 7.62852e-016 20   XYZ
    dof rx
    limits (-90.0 20.0)
  end
  begin
     id 6 
     name rhipjoint
     direction -0.700191 -0.625589 0.34405   
     length 2.53115  
     axis 0 0 0  XYZ 
  end
  begin
     id 7 
     name rfemur
     direction -0.34202 -0.939693 0   
     length 7.33006   
     axis 0 0 -20   XYZ
    dof rx ry rz
    limits (-160.0 20.0)
           (-70.0 70.0)
           (-70.0 60.0)
  end
  begin
     id 8 
     name rtibia
     direction -0.34202 -0.939693 0   
     length 7.64926   
     axis 0 0 -20   XYZ
    dof rx
    limits (-10.0 170.0)
 end
 begin
     id 9 
     name rfoot
     direction -0.0688927 -0.189281 0.979503   
     length 2.20493  
     axis -90 -7.62852e-016 -20   XYZ
    dof rx rz
    limits (-45.0 90.0)
           (-20.0 70.0)
  end
  begin
     id 10 
     name rtoes
     direction -1.53567e-011 -4.21933e-011 1   
     length 1.10919   
     axis -90 -7.62852e-016 -20   XYZ
    dof rx
    limits (-90.0 20.0)
  end
  begin
     id 11 
     name lowerback
     direction -0.0167868 0.989873 -0.140959   
     length 2.14596   
     axis 0 0 0   XYZ
    dof rx ry rz
    limits (-20.0 45.0)
           (-30.0 30.0)
           (-30.0 30.0)
  end
  begin
     id 12 
     name upperback
     direction 0.0129109 0.998033 0.0613525   
     length 2.10457   
     axis 0 0 0   XYZ
    dof rx ry rz
    limits (-20.0 45.0)
           (-30.0 30.0)
           (-30.0 30.0)
  end
  begin
     id 13 
     name thorax
     direction 0.0177047 0.991119 0.131797   
     length 2.17652   
     axis 0 0 0   XYZ
    dof rx ry rz
    limits (-20.0 45.0)
           (-30.0 30.0)
           (-30.0 30.0)
  end
  begin
     id 14 
     name lowerneck
     direction -0.0336893 0.997548 0.0613464   
     length 1.8912   
     axis 0 0 0   XYZ
    dof rx ry rz
    limits (-20.0 45.0)
           (-30.0 30.0)
           (-30.0 30.0)
  end
  begin
     id 15 
     name upperneck
     direction 0.0435909 0.997179 -0.0611028   
     length 1.8829   
     axis 0 0 0   XYZ
    dof rx ry rz
    limits (-20.0 45.0)
           (-30.0 30.0)
           (-30.0 30.0)
  end
  begin
     id 16
     name head
     direction 0.0175076 0.999444 -0.0283782  
     length 1.93197  
     axis 0 0 0   XYZ
    dof rx ry rz
    limits (-20.0 45.0)
           (-30.0 30.0)
           (-30.0 30.0)
  end
  begin
     id 17 
     name lclavicle
     direction 0.919164 0.389875 0.0559876  
     length 3.60004  
     axis 0 0 0   XYZ
    dof ry rz
    limits (-20.0 10.0)
           (0.0 20.0)
  end
  begin
     id 18 
     name lhumerus
     direction 1 -4.48958e-011 6.89191e-027   
     length 5.43301   
     axis 180 -30 -90   XYZ
    dof rx ry rz
    limits (-60.0 90.0)
           (-90.0 90.0)
           (-90.0 90.0)
  end
  begin
     id 19
     name lradius
     direction 1 -4.4897e-011 3.24727e-027   
     length 3.15936   
     axis 180 -30 -90   XYZ
    dof rx
    limits (-10.0 170.0)
  end
  begin
     id 20
     name lwrist
     direction 1 -4.4897e-011 9.00228e-027   
     length 1.57968   
     axis -6.29373e-015 90 90   XYZ
    dof ry
    limits (-180.0 0.0)
 end
  begin
     id 21 
     name lhand
     direction 1 -4.48968e-011 1.80042e-026   
     length 0.712827   
     axis -1.14882e-014 90 90   XYZ
    dof rx rz
    limits (-90.0 90.0)
           (-45.0 45.0)
  end
  begin
     id 22 
     name lfingers
     direction 1 -4.49019e-011 3.60267e-026   
     length 0.574699   
     axis -2.29769e-014 90 90   XYZ
    dof rx
    limits (0.0 90.0)
  end
  begin
     id 23
     name lthumb
     direction 0.707107 -6.3498e-011 0.707107   
     length 0.825157   
     axis -90 45 5.37419e-014   XYZ
    dof rx rz
    limits (-45.0 45.0)
           (-45.0 45.0)
  end
  begin
     id 24 
     name rclavicle
     direction -0.890334 0.455305 -0.00132111   
     length 3.51494  
     axis 0 0 0   XYZ 
    dof ry rz
    limits (-10.0 20.0)
           (-20.0 0.0)
  end
  begin
     id 25 
     name rhumerus
     direction -1 -4.48967e-011 5.07175e-028  
     length 5.34194   
     axis 180 30 90   XYZ
    dof rx ry rz
    limits (-90.0 60.0)
           (-90.0 90.0)
           (-90.0 90.0)
  end
  begin
     id 26 
     name rradius
     direction -1 -4.48955e-011 3.30467e-027   
     length 3.19351   
     axis 180 30 90   XYZ
    dof rx
    limits (-10.0 170.0)
  end
  begin
     id 27 
     name rwrist
     direction -1 -4.48968e-011 9.00208e-027   
     length 1.59676   
     axis -6.29373e-015 -90 -90   XYZ
    dof ry
    limits (-180.0 0.0)
  end
  begin
     id 28
     name rhand
     direction -1 -4.49e-011 1.80099e-026   
     length 0.743862   
     axis -1.14882e-014 -90 -90   XYZ
    dof rx rz
    limits (-90.0 90.0)
           (-45.0 45.0)
  end
  begin
     id 29
     name rfingers
     direction -1 -4.49009e-011 3.6023e-026   
     length 0.599721   
     axis -2.29769e-014 -90 -90   XYZ
    dof rx
    limits (0.0 90.0)
  end
  begin
     id 30
     name rthumb
     direction -0.707107 -6.35025e-011 0.707107   
     length 0.861083   
     axis -90 -45 -5.37419e-014   XYZ
    dof rx rz
    limits (-45.0 45.0)
           (-45.0 45.0)
  end
:hierarchy
  begin
    root lhipjoint rhipjoint lowerback
    lhipjoint lfemur
    lfemur ltibia
    ltibia lfoot
    lfoot ltoes
    rhipjoint rfemur
    rfemur rtibia
    rtibia rfoot
    rfoot rtoes
    lowerback upperback
    upperback thorax
    thorax lowerneck lclavicle rclavicle
    lowerneck upperneck
    upperneck head
    lclavicle lhumerus
    lhumerus lradius
    lradius lwrist
    lwrist lhand lthumb
    lhand lfingers
    rclavicle rhumerus
    rhumerus rradius
    rradius rwrist
    rwrist rhand rthumb
    rhand rfingers
  end

#!OML:ASF H:\Martial Arts Walks\Project 1\Capture day 1\Session 1\male.ASF
:FULLY-SPECIFIED
:DEGREES
539
root 0.275173 14.0234 0.884722 12.7427 -12.2991 0.481623
lowerback 16.2386 2.90564 -7.48366
upperback -1.09064 2.35392 -0.30127
thorax -10.6663 1.52739 3.31535
lowerneck -3.11987 -0.922121 -3.2196
upperneck -4.08345 -1.04014 4.7037
head -0.69812 -0.505624 2.01674
rclavicle -8.24956e-015 -3.37934e-015
rhumerus 48.7714 49.3679 -53.1872
rradius 90.9335
rwrist -41.3838
rhand -5.62692 -35.2604
rfingers 7.12502
rthumb 20.191 -64.231
lclavicle -8.24956e-015 -3.37934e-015
lhumerus 28.0823 -30.0704 82.7584
lradius 24.1769
lwrist -25.5806
lhand 3.83363 13.9733
lfingers 7.12502
lthumb 29.2569 41.6926
rfemur -30.2609 -10.0982 13.7386
rtibia 98.9666
rfoot -7.58807 -7.95681
rtoes -20.0378
lfemur -60.1451 18.9492 -28.4941
ltibia 82.5929
lfoot -23.0053 23.4832
ltoes -11.9299
540
root 0.270673 14.0214 1.04268 11.9699 -11.7961 1.24718
lowerback 16.888 2.94289 -7.86169
upperback -1.00274 2.24428 -0.529222
thorax -10.9363 1.49266 3.28892
lowerneck -3.2019 -1.02981 -3.25005
upperneck -3.9665 -1.18695 4.61027
head -0.641676 -0.57653 1.98935
rclavicle 3.61788e-014 -3.73715e-014
rhumerus 54.8163 49.6826 -48.7029
rradius 93.3172
rwrist -39.5212
rhand -4.68374 -33.6091
rfingers 7.12502
rthumb 21.0973 -62.4813
lclavicle 3.61788e-014 -3.73715e-014
lhumerus 28.9357 -32.641 82.3548
lradius 24.2591
lwrist -24.8795
lhand 3.20177 13.6054
lfingers 7.12502
lthumb 28.6533 41.4282
rfemur -33.5483 -10.832 14.9759
rtibia 101.622
rfoot -9.02304 -9.29772
rtoes -18.7163
lfemur -58.4393 18.3355 -28.8526
ltibia 82.3478
lfoot -23.4693 23.9412
ltoes -12.4578
541
root 0.265165 14.0152 1.2073 11.2674 -11.2371 1.87736
lowerback 17.4918 2.96566 -8.07552
upperback -0.931673 2.15202 -0.716001
thorax -11.1942 1.45898 3.21181
lowerneck -3.32135 -1.13892 -3.29067
upperneck -3.85485 -1.33428 4.50259
head -0.580778 -0.64725 1.95879
rclavicle 1.28216e-014 -3.57812e-015
rhumerus 60.5725 49.6036 -44.3672
rradius 95.8308
rwrist -37.4951
rhand -3.88978 -32.1131
rfingers 7.12502
rthumb 21.8598 -60.8984
lclavicle 1.28216e-014 -3.57812e-015
lhumerus 29.8135 -35.2957 81.7994
lradius 24.5407
lwrist -24.3555
lhand 2.48438 13.3189
lfingers 7.12502
lthumb 27.9677 41.2555
rfemur -36.9259 -11.3372 16.4908
rtibia 103.77
rfoot -10.3286 -10.5982
rtoes -17.2288
lfemur -56.7988 17.7489 -29.0959
ltibia 82.1727
lfoot -23.9558 24.4108
ltoes -13.0183
542
root 0.257962 14.0052 1.37916 10.6374 -10.6212 2.36695
lowerback 18.0219 2.96578 -8.11874
upperback -0.869911 2.0739 -0.871283
thorax -11.4148 1.42271 3.07165
lowerneck -3.44297 -1.26034 -3.34516
upperneck -3.76917 -1.4959 4.42208
head -0.52698 -0.725316 1.93946
rclavicle 4.08006e-014 1.09332e-014
rhumerus 65.8986 49.1694 -40.3093
rradius 98.4882
rwrist -35.2824
rhand -3.11137 -30.6788
rfingers 7.12502
rthumb 22.6071 -59.375
lclavicle 4.08006e-014 1.09332e-014
lhumerus 30.7211 -37.9685 81.0894
lradius 25.0185
lwrist -24.1429
lhand 1.74559 13.0228
lfingers 7.12502
lthumb 27.2613 41.0725
rfemur -40.368 -11.5529 18.2311
rtibia 105.387
rfoot -11.4788 -11.7525
rtoes -15.7639
lfemur -55.2212 17.2069 -29.2156
ltibia 82.064
lfoot -24.4973 24.8595
ltoes -13.5702
543
root 0.24828 13.9922 1.5589 10.0755 -9.94475 2.74481
lowerback 18.469 2.94414 -8.03387
upperback -0.823218 2.00523 -1.00114
thorax -11.6013 1.38381 2.88706
lowerneck -3.55513 -1.39428 -3.41285
upperneck -3.6938 -1.67252 4.38854
head -0.477007 -0.811147 1.93761
rclavicle 1.90833e-014 -1.96797e-014
rhumerus 70.6469 48.4526 -36.653
rradius 101.277
rwrist -32.8628
rhand -2.22284 -29.1742
rfingers 7.12502
rthumb 23.4596 -57.764
lclavicle 1.90833e-014 -1.96797e-014
lhumerus 31.6597 -40.6605 80.2
lradius 25.7174
lwrist -24.2396
lhand 0.996609 12.6985
lfingers 7.12502
lthumb 26.5446 40.8586
rfemur -43.8323 -11.4633 20.0788
rtibia 106.469
rfoot -12.443 -12.6749
rtoes -14.5175
lfemur -53.6962 16.7143 -29.2386
ltibia 82.0064
lfoot -25.1191 25.2624
ltoes -14.088
544
root 0.23527 13.977 1.74704 9.56461 -9.20437 3.04675
lowerback 18.8443 2.91016 -7.87723
upperback -0.795008 1.94612 -1.10826
thorax -11.7666 1.34588 2.68627
lowerneck -3.6534 -1.55827 -3.51654
upperneck -3.60467 -1.88725 4.42911
head -0.422397 -0.915996 1.96573
rclavicle 6.95746e-015 -4.77083e-015
rhumerus 74.7143 47.5405 -33.4899
rradius 104.14
rwrist -30.2651
rhand -1.11275 -27.4269
rfingers 7.12502
rthumb 24.5241 -55.8765
lclavicle 6.95746e-015 -4.77083e-015
lhumerus 32.5959 -43.356 79.1649
lradius 26.6834
lwrist -24.5595
lhand 0.267625 12.3538
lfingers 7.12502
lthumb 25.8467 40.6175
rfemur -47.255 -11.0852 21.8909
rtibia 107.024
rfoot -13.2474 -13.2839
rtoes -13.63
lfemur -52.1954 16.2798 -29.1919
ltibia 81.9759
lfoot -25.8578 25.5812
ltoes -14.5004
